<svg id="logo" xmlns="http://www.w3.org/2000/svg" xmlns:xlink="http://www.w3.org/1999/xlink" width="153.568" height="22.154" viewBox="0 0 153.568 22.154">
  <defs>
    <linearGradient id="linear-gradient" x2="1" y2="1" gradientUnits="objectBoundingBox">
      <stop offset="0" stop-color="#ff932e"/>
      <stop offset="1" stop-color="#e57003"/>
    </linearGradient>
    <clipPath id="clip-path">
      <path id="Path_39" data-name="Path 39" d="M11.073,0A11.075,11.075,0,0,0,6.138,20.988V13.836A1.794,1.794,0,0,1,7.013,12.3L13.16,8.642a1.791,1.791,0,0,1,1.83,0L21.137,12.3a1.79,1.79,0,0,1,.788.995,10.943,10.943,0,0,0,.224-2.218A11.072,11.072,0,0,0,11.073,0Z" stroke="rgba(0,0,0,0)" stroke-width="1" fill="url(#linear-gradient)"/>
    </clipPath>
    <clipPath id="clip-path-2">
      <path id="Path_40" data-name="Path 40" d="M43.93,61.409v3.7h3.6v-3.7a1.8,1.8,0,0,0-3.6,0" transform="translate(-43.93 -59.61)" fill="#151206" stroke="rgba(0,0,0,0)" stroke-width="1"/>
    </clipPath>
  </defs>
  <g id="Group_941" data-name="Group 941" transform="translate(0 -1)">
    <g id="Group_596" data-name="Group 596" transform="translate(0 1)">
      <g id="Group_597" data-name="Group 597">
        <g id="Group_596-2" data-name="Group 596" clip-path="url(#clip-path)">
          <rect id="Rectangle_18" data-name="Rectangle 18" width="22.148" height="20.988" rx="10.494" transform="translate(0 0)" stroke="rgba(0,0,0,0)" stroke-width="1" fill="url(#linear-gradient)"/>
        </g>
      </g>
      <g id="Group_599" data-name="Group 599" transform="translate(12.274 16.655)">
        <g id="Group_598" data-name="Group 598" clip-path="url(#clip-path-2)">
          <rect id="Rectangle_19" data-name="Rectangle 19" width="3.601" height="5.499" rx="1.801" transform="translate(0 0)" fill="#151206" stroke="rgba(0,0,0,0)" stroke-width="1"/>
        </g>
      </g>
    </g>
    <path id="Path_589" data-name="Path 589" d="M5.814.255a6.031,6.031,0,0,1-2.452-.48A4.567,4.567,0,0,1,1.568-1.6,4.487,4.487,0,0,1,.68-3.74L3.094-4.1A2.69,2.69,0,0,0,4.148-2.474,3.056,3.056,0,0,0,5.967-1.9a3.472,3.472,0,0,0,1.105-.178,2.182,2.182,0,0,0,.88-.527A1.174,1.174,0,0,0,8.3-3.468a1.188,1.188,0,0,0-.055-.361.965.965,0,0,0-.183-.327A1.345,1.345,0,0,0,7.7-4.445a2.876,2.876,0,0,0-.591-.247L3.927-5.627q-.357-.1-.829-.289a3.65,3.65,0,0,1-.914-.536,2.738,2.738,0,0,1-.735-.922,3.172,3.172,0,0,1-.293-1.449,3.287,3.287,0,0,1,.621-2.049,3.7,3.7,0,0,1,1.657-1.216,6.217,6.217,0,0,1,2.3-.391,6.02,6.02,0,0,1,2.261.434,4.34,4.34,0,0,1,1.666,1.211,4.843,4.843,0,0,1,.969,1.942l-2.5.425a2.211,2.211,0,0,0-.5-1,2.408,2.408,0,0,0-.871-.621A2.942,2.942,0,0,0,5.7-10.319a2.842,2.842,0,0,0-1.024.149,1.937,1.937,0,0,0-.782.48,1.043,1.043,0,0,0-.3.748.888.888,0,0,0,.247.65,1.826,1.826,0,0,0,.62.4,6.055,6.055,0,0,0,.765.255l2.125.578q.476.128,1.054.336a4.766,4.766,0,0,1,1.109.578,2.937,2.937,0,0,1,.876.973,3.057,3.057,0,0,1,.344,1.53,3.462,3.462,0,0,1-.412,1.721A3.59,3.59,0,0,1,9.205-.7,5.1,5.1,0,0,1,7.629.017,6.918,6.918,0,0,1,5.814.255ZM17.7.255a5.947,5.947,0,0,1-2.2-.412,5.352,5.352,0,0,1-1.849-1.22,5.742,5.742,0,0,1-1.266-2,7.534,7.534,0,0,1-.463-2.746,7.117,7.117,0,0,1,.778-3.455,5.423,5.423,0,0,1,2.091-2.172,5.778,5.778,0,0,1,2.911-.748,5.734,5.734,0,0,1,3.715,1.1,5.391,5.391,0,0,1,1.811,3.1l-2.363.34a3.58,3.58,0,0,0-1.084-1.713,2.9,2.9,0,0,0-1.925-.65,3.316,3.316,0,0,0-1.938.5,3.136,3.136,0,0,0-1.16,1.47,5.892,5.892,0,0,0-.387,2.227,5.761,5.761,0,0,0,.387,2.21,3.145,3.145,0,0,0,1.16,1.454,3.5,3.5,0,0,0,1.938.536,3.274,3.274,0,0,0,1.432-.272,2.664,2.664,0,0,0,1.084-.91,4.027,4.027,0,0,0,.629-1.589H19.057V-6.477h4.4a3.747,3.747,0,0,1,.026.391q.009.28.008.323a6.612,6.612,0,0,1-.714,3.119A5.267,5.267,0,0,1,20.765-.514,5.917,5.917,0,0,1,17.7.255Zm15.521,0a6.031,6.031,0,0,1-2.452-.48A4.567,4.567,0,0,1,28.972-1.6a4.487,4.487,0,0,1-.888-2.138L30.5-4.1a2.69,2.69,0,0,0,1.054,1.624,3.056,3.056,0,0,0,1.819.569,3.472,3.472,0,0,0,1.1-.178,2.182,2.182,0,0,0,.88-.527,1.174,1.174,0,0,0,.344-.858,1.188,1.188,0,0,0-.055-.361.965.965,0,0,0-.183-.327,1.345,1.345,0,0,0-.361-.289,2.876,2.876,0,0,0-.591-.247l-3.179-.935q-.357-.1-.829-.289a3.65,3.65,0,0,1-.914-.536,2.738,2.738,0,0,1-.735-.922,3.172,3.172,0,0,1-.293-1.449,3.287,3.287,0,0,1,.621-2.049,3.7,3.7,0,0,1,1.657-1.216,6.217,6.217,0,0,1,2.3-.391,6.02,6.02,0,0,1,2.261.434,4.34,4.34,0,0,1,1.666,1.211,4.843,4.843,0,0,1,.969,1.942l-2.5.425a2.211,2.211,0,0,0-.5-1,2.408,2.408,0,0,0-.871-.621,2.942,2.942,0,0,0-1.058-.229,2.842,2.842,0,0,0-1.024.149,1.937,1.937,0,0,0-.782.48,1.043,1.043,0,0,0-.3.748.888.888,0,0,0,.247.65,1.826,1.826,0,0,0,.621.4,6.054,6.054,0,0,0,.765.255l2.125.578q.476.128,1.054.336a4.766,4.766,0,0,1,1.109.578,2.937,2.937,0,0,1,.876.973,3.057,3.057,0,0,1,.344,1.53,3.462,3.462,0,0,1-.412,1.721A3.59,3.59,0,0,1,36.609-.7a5.1,5.1,0,0,1-1.577.718A6.918,6.918,0,0,1,33.218.255Zm10.914,0A4.673,4.673,0,0,1,41.7-.366a4.307,4.307,0,0,1-1.628-1.713,5.258,5.258,0,0,1-.582-2.512,5.2,5.2,0,0,1,.6-2.529,4.336,4.336,0,0,1,1.64-1.7,4.673,4.673,0,0,1,2.405-.612,4.7,4.7,0,0,1,2.435.621A4.328,4.328,0,0,1,48.2-7.1,5.227,5.227,0,0,1,48.79-4.59,5.215,5.215,0,0,1,48.2-2.07a4.328,4.328,0,0,1-1.64,1.708A4.7,4.7,0,0,1,44.132.255Zm0-2.159a1.921,1.921,0,0,0,1.662-.752,3.2,3.2,0,0,0,.548-1.934,3.147,3.147,0,0,0-.557-1.955,1.948,1.948,0,0,0-1.653-.731,2.112,2.112,0,0,0-1.241.34,2,2,0,0,0-.718.944,3.869,3.869,0,0,0-.234,1.4A3.143,3.143,0,0,0,42.5-2.631,1.934,1.934,0,0,0,44.132-1.9ZM50.83,0V-12.495h2.312V0Zm7.412.255a3.409,3.409,0,0,1-1.67-.378,2.585,2.585,0,0,1-1.037-1.012,2.824,2.824,0,0,1-.353-1.4,3.325,3.325,0,0,1,.2-1.164,2.383,2.383,0,0,1,.633-.931A3.5,3.5,0,0,1,57.188-5.3,8.555,8.555,0,0,1,58.4-5.635q.705-.145,1.6-.276T61.965-6.2l-.833.459a1.614,1.614,0,0,0-.391-1.2,1.834,1.834,0,0,0-1.309-.382,2.6,2.6,0,0,0-1.062.246A1.422,1.422,0,0,0,57.6-6.2L55.5-6.868a3.547,3.547,0,0,1,1.309-1.853,4.3,4.3,0,0,1,2.618-.714,5.825,5.825,0,0,1,2.159.374,2.7,2.7,0,0,1,1.428,1.292,2.74,2.74,0,0,1,.323,1.02q.051.51.051,1.139V0H61.37V-1.887l.289.391A4.363,4.363,0,0,1,60.21-.157,4.177,4.177,0,0,1,58.242.255Zm.493-1.819a2.331,2.331,0,0,0,1.075-.225,2.4,2.4,0,0,0,.7-.514,2.237,2.237,0,0,0,.353-.485,2.331,2.331,0,0,0,.208-.871q.03-.5.03-.829l.68.17q-1.028.17-1.666.285t-1.028.208a6,6,0,0,0-.688.2,2.383,2.383,0,0,0-.548.293,1.046,1.046,0,0,0-.306.344.885.885,0,0,0-.1.417.919.919,0,0,0,.157.54.984.984,0,0,0,.446.344A1.8,1.8,0,0,0,58.735-1.564ZM65.6,0V-9.18h2.04v2.244l-.221-.289a3.386,3.386,0,0,1,.476-.867,2.5,2.5,0,0,1,.731-.646,2.963,2.963,0,0,1,.722-.319,3.827,3.827,0,0,1,.808-.144,4.311,4.311,0,0,1,.833.021v2.159A2.383,2.383,0,0,0,70.1-7.1a2.539,2.539,0,0,0-.914.234,2.087,2.087,0,0,0-.688.5,2.086,2.086,0,0,0-.425.731,2.907,2.907,0,0,0-.145.948V0Zm10.4,0V-12.24h2.312v5.032h5.474V-12.24h2.312V0H83.793V-5.049H78.319V0ZM92.616.255a4.673,4.673,0,0,1-2.431-.62,4.307,4.307,0,0,1-1.628-1.713,5.258,5.258,0,0,1-.582-2.512,5.2,5.2,0,0,1,.6-2.529,4.337,4.337,0,0,1,1.64-1.7,4.673,4.673,0,0,1,2.406-.612,4.7,4.7,0,0,1,2.435.621A4.328,4.328,0,0,1,96.688-7.1a5.227,5.227,0,0,1,.587,2.512,5.215,5.215,0,0,1-.591,2.52A4.328,4.328,0,0,1,95.043-.361,4.7,4.7,0,0,1,92.616.255Zm0-2.159a1.921,1.921,0,0,0,1.662-.752,3.2,3.2,0,0,0,.548-1.934,3.147,3.147,0,0,0-.557-1.955,1.948,1.948,0,0,0-1.653-.731,2.112,2.112,0,0,0-1.241.34,2,2,0,0,0-.718.944,3.869,3.869,0,0,0-.234,1.4,3.143,3.143,0,0,0,.557,1.959A1.934,1.934,0,0,0,92.616-1.9ZM110.194,0V-5.423a2.122,2.122,0,0,0-.429-1.415,1.472,1.472,0,0,0-1.186-.506,1.544,1.544,0,0,0-.841.225,1.524,1.524,0,0,0-.557.629,2.073,2.073,0,0,0-.2.931l-.969-.646a3.105,3.105,0,0,1,.446-1.666A3.116,3.116,0,0,1,107.657-9a3.475,3.475,0,0,1,1.67-.4,2.967,2.967,0,0,1,2.376.931,3.6,3.6,0,0,1,.8,2.435V0ZM99.127,0V-9.18h2.04v3.043h.289V0Zm5.542,0V-5.423a2.122,2.122,0,0,0-.429-1.415,1.472,1.472,0,0,0-1.186-.506,1.47,1.47,0,0,0-1.16.5,1.877,1.877,0,0,0-.438,1.288l-.969-.68a2.963,2.963,0,0,1,.451-1.615,3.252,3.252,0,0,1,1.211-1.13,3.49,3.49,0,0,1,1.7-.416,3.149,3.149,0,0,1,1.772.459,2.749,2.749,0,0,1,1.024,1.224,4.188,4.188,0,0,1,.331,1.683V0Zm14.144.255a4.966,4.966,0,0,1-2.486-.608,4.384,4.384,0,0,1-1.683-1.675,4.849,4.849,0,0,1-.608-2.444,5.476,5.476,0,0,1,.6-2.618,4.33,4.33,0,0,1,1.64-1.73,4.648,4.648,0,0,1,2.406-.616,4.3,4.3,0,0,1,2.456.68,3.994,3.994,0,0,1,1.5,1.912,6.368,6.368,0,0,1,.34,2.9h-2.287v-.85a3.517,3.517,0,0,0-.446-2.019,1.677,1.677,0,0,0-1.458-.616,2.061,2.061,0,0,0-1.738.718,3.419,3.419,0,0,0-.557,2.121,3.122,3.122,0,0,0,.557,1.985,1.964,1.964,0,0,0,1.636.7,2.183,2.183,0,0,0,1.165-.3,1.9,1.9,0,0,0,.739-.859l2.312.663a4.067,4.067,0,0,1-1.636,1.955A4.53,4.53,0,0,1,118.813.255Zm-3.043-4.2V-5.661h6.086v1.717Z" transform="translate(30 19)" fill="#151206"/>
    <path id="SG_Solar_Home_-_Outline" data-name="SG Solar Home - Outline" d="M118.813.755a5.481,5.481,0,0,1-2.732-.672,4.9,4.9,0,0,1-1.871-1.862,5.364,5.364,0,0,1-.673-2.691,5.994,5.994,0,0,1,.654-2.854,4.843,4.843,0,0,1,1.828-1.925,5.161,5.161,0,0,1,2.659-.686,4.809,4.809,0,0,1,2.735.765,4.5,4.5,0,0,1,1.682,2.145,6.888,6.888,0,0,1,.373,3.125l-.04.457h-2.372l2.513.721-.213.517a4.575,4.575,0,0,1-1.834,2.189A5.043,5.043,0,0,1,118.813.755Zm-.136-9.69a4.177,4.177,0,0,0-2.152.547,3.806,3.806,0,0,0-1.453,1.535,5.01,5.01,0,0,0-.536,2.382,4.378,4.378,0,0,0,.542,2.2,3.91,3.91,0,0,0,1.495,1.487,4.5,4.5,0,0,0,2.24.543,4,4,0,0,0,2.179-.621,3.488,3.488,0,0,0,1.188-1.215l-1.357-.389a2.328,2.328,0,0,1-.721.695,2.683,2.683,0,0,1-1.426.371,2.448,2.448,0,0,1-2.028-.89,2.944,2.944,0,0,1-.54-1.15h-.839V-6.161h.932a2.831,2.831,0,0,1,.443-.856,2.542,2.542,0,0,1,2.133-.912,2.154,2.154,0,0,1,1.863.823,2.6,2.6,0,0,1,.406.945h1.278a4.415,4.415,0,0,0-.162-.5,3.475,3.475,0,0,0-1.31-1.68A3.832,3.832,0,0,0,118.677-8.935ZM117.15-3.444a1.794,1.794,0,0,0,.282.528,1.48,1.48,0,0,0,1.245.512,1.681,1.681,0,0,0,.9-.224,1.4,1.4,0,0,0,.546-.639l.081-.177Zm5.206-1h.143a6.159,6.159,0,0,0-.143-1.6Zm-1.173,0h.173v-.717h-.181q.008.178.008.367Zm-4.2,0h3.2v-.35q0-.191-.009-.367h-3.162a5.446,5.446,0,0,0-.028.571Q116.984-4.516,116.986-4.444Zm.3-1.717h2.727a1.363,1.363,0,0,0-.177-.359,1.206,1.206,0,0,0-1.053-.409,1.582,1.582,0,0,0-1.343.525A1.583,1.583,0,0,0,117.282-6.161ZM92.616.755A5.186,5.186,0,0,1,89.93.064a4.82,4.82,0,0,1-1.814-1.908,5.775,5.775,0,0,1-.641-2.747,5.719,5.719,0,0,1,.656-2.768,4.849,4.849,0,0,1,1.827-1.9,5.187,5.187,0,0,1,2.658-.68,5.209,5.209,0,0,1,2.69.69,4.84,4.84,0,0,1,1.822,1.907,5.744,5.744,0,0,1,.646,2.748,5.732,5.732,0,0,1-.651,2.758A4.84,4.84,0,0,1,95.3.07,5.218,5.218,0,0,1,92.616.755Zm0-9.69a4.2,4.2,0,0,0-2.153.544A3.811,3.811,0,0,0,89.009-6.88a4.734,4.734,0,0,0-.534,2.29A4.789,4.789,0,0,0,89-2.313,3.782,3.782,0,0,0,90.44-.8a4.2,4.2,0,0,0,2.176.55A4.233,4.233,0,0,0,94.79-.792a3.8,3.8,0,0,0,1.454-1.515,4.746,4.746,0,0,0,.531-2.282,4.758,4.758,0,0,0-.527-2.275A3.8,3.8,0,0,0,94.8-8.384,4.225,4.225,0,0,0,92.616-8.935ZM58.242.755A3.914,3.914,0,0,1,56.33.314,3.089,3.089,0,0,1,55.1-.891a3.331,3.331,0,0,1-.416-1.642,3.838,3.838,0,0,1,.227-1.338A2.889,2.889,0,0,1,55.672-5a4.005,4.005,0,0,1,1.344-.777l.136-.048-2.27-.72.145-.473a4.053,4.053,0,0,1,1.489-2.108,4.8,4.8,0,0,1,2.916-.813,6.347,6.347,0,0,1,2.343.409A3.194,3.194,0,0,1,63.461-8a3.247,3.247,0,0,1,.378,1.2c.035.355.053.755.053,1.189V.5H60.87V.02a3.774,3.774,0,0,1-.426.265A4.683,4.683,0,0,1,58.242.755ZM60.632-5.5l-.557.083c-.583.086-1.111.177-1.571.271a8.1,8.1,0,0,0-1.144.311,3.025,3.025,0,0,0-1.01.574,1.873,1.873,0,0,0-.5.737,2.845,2.845,0,0,0-.164.991,2.312,2.312,0,0,0,.29,1.155,2.077,2.077,0,0,0,.842.817,2.936,2.936,0,0,0,1.428.316A3.712,3.712,0,0,0,59.976-.6a3.381,3.381,0,0,0,.894-.717v-.644a2.913,2.913,0,0,1-.831.615,2.831,2.831,0,0,1-1.3.281,2.3,2.3,0,0,1-.879-.157,1.48,1.48,0,0,1-.666-.52,1.413,1.413,0,0,1-.247-.826,1.384,1.384,0,0,1,.155-.648,1.544,1.544,0,0,1,.448-.512,2.846,2.846,0,0,1,.664-.358l.012,0a6.525,6.525,0,0,1,.746-.222c.269-.064.624-.136,1.056-.214l.575-.1v-.5l.034.008Zm1.238,5h1.023V-5.61c0-.4-.016-.767-.049-1.089a2.257,2.257,0,0,0-.267-.834A2.193,2.193,0,0,0,61.407-8.6a5.358,5.358,0,0,0-1.975-.339,3.841,3.841,0,0,0-2.32.615,3.031,3.031,0,0,0-.95,1.136l1.171.371a1.844,1.844,0,0,1,.832-.724,3.111,3.111,0,0,1,1.266-.29,2.272,2.272,0,0,1,1.659.525,1.671,1.671,0,0,1,.408.661L61.89-6.7l.316.932-1.3.716L61.9-4.8l-.04.978-.284.047q0,.072-.008.148a2.94,2.94,0,0,1-.192.909l.9,1.222-.215.3c-.064.088-.128.173-.194.255ZM58.575-3.155a1.9,1.9,0,0,0-.427.226.563.563,0,0,0-.164.177.39.39,0,0,0-.041.185.43.43,0,0,0,.067.254.493.493,0,0,0,.227.168,1.323,1.323,0,0,0,.5.081,1.855,1.855,0,0,0,.846-.17,1.917,1.917,0,0,0,.554-.4A1.736,1.736,0,0,0,60.409-3a1.779,1.779,0,0,0,.154-.6l-.362.064c-.414.074-.75.143-1,.2A5.562,5.562,0,0,0,58.575-3.155Zm.857-3.672a2.123,2.123,0,0,0-.859.2.908.908,0,0,0-.491.546l.221-.047c.477-.1,1.024-.192,1.625-.281l.543-.081a.565.565,0,0,0-.081-.1A1.357,1.357,0,0,0,59.432-6.827ZM44.132.755A5.186,5.186,0,0,1,41.446.064a4.82,4.82,0,0,1-1.814-1.908,5.775,5.775,0,0,1-.641-2.747,5.719,5.719,0,0,1,.656-2.768,4.849,4.849,0,0,1,1.827-1.9,5.187,5.187,0,0,1,2.658-.68,5.209,5.209,0,0,1,2.69.69,4.84,4.84,0,0,1,1.822,1.907A5.744,5.744,0,0,1,49.29-4.59a5.732,5.732,0,0,1-.651,2.758A4.84,4.84,0,0,1,46.812.07,5.218,5.218,0,0,1,44.132.755Zm0-9.69a4.2,4.2,0,0,0-2.153.544A3.811,3.811,0,0,0,40.525-6.88a4.734,4.734,0,0,0-.534,2.29,4.789,4.789,0,0,0,.523,2.277A3.782,3.782,0,0,0,41.956-.8a4.2,4.2,0,0,0,2.176.55,4.233,4.233,0,0,0,2.174-.547,3.8,3.8,0,0,0,1.454-1.515A4.746,4.746,0,0,0,48.29-4.59a4.758,4.758,0,0,0-.527-2.275,3.8,3.8,0,0,0-1.45-1.519A4.225,4.225,0,0,0,44.132-8.935ZM33.218.755A6.554,6.554,0,0,1,30.564.232a5.083,5.083,0,0,1-1.986-1.527,5,5,0,0,1-.989-2.371l-.075-.5,3.362-.5.107.444a2.187,2.187,0,0,0,.858,1.334,2.545,2.545,0,0,0,1.529.477,2.989,2.989,0,0,0,.947-.153,1.7,1.7,0,0,0,.682-.4.678.678,0,0,0,.2-.507.685.685,0,0,0-.032-.21.467.467,0,0,0-.09-.158.852.852,0,0,0-.229-.177,2.394,2.394,0,0,0-.484-.2L31.19-5.147c-.249-.071-.544-.174-.872-.3a4.165,4.165,0,0,1-1.039-.608,3.246,3.246,0,0,1-.871-1.087,3.673,3.673,0,0,1-.348-1.677,3.788,3.788,0,0,1,.722-2.351,4.209,4.209,0,0,1,1.876-1.379,6.716,6.716,0,0,1,2.422-.425h.056a6.548,6.548,0,0,1,2.451.472,4.855,4.855,0,0,1,1.855,1.35,5.36,5.36,0,0,1,1.071,2.139l.137.527-3.5.6-.105-.461a1.7,1.7,0,0,0-.386-.781,1.9,1.9,0,0,0-.693-.493,2.458,2.458,0,0,0-.88-.191,2.347,2.347,0,0,0-.846.122,1.454,1.454,0,0,0-.584.354.542.542,0,0,0-.163.4.386.386,0,0,0,.1.3,1.34,1.34,0,0,0,.453.291,5.581,5.581,0,0,0,.7.234h.005l2.125.578c.327.088.7.2,1.092.348a5.287,5.287,0,0,1,1.225.638,3.446,3.446,0,0,1,1.024,1.136,3.558,3.558,0,0,1,.41,1.778,3.97,3.97,0,0,1-.476,1.966A4.1,4.1,0,0,1,36.893-.29,5.624,5.624,0,0,1,35.163.5,7.451,7.451,0,0,1,33.218.755ZM28.679-3.323a3.857,3.857,0,0,0,.687,1.412,4.094,4.094,0,0,0,1.6,1.227,5.564,5.564,0,0,0,2.251.438A6.451,6.451,0,0,0,34.9-.466a4.628,4.628,0,0,0,1.424-.647,3.111,3.111,0,0,0,.957-1.048,2.986,2.986,0,0,0,.348-1.477,2.588,2.588,0,0,0-.279-1.282,2.455,2.455,0,0,0-.727-.811,4.288,4.288,0,0,0-.993-.518c-.37-.133-.712-.242-1.014-.323L32.494-7.15a6.584,6.584,0,0,1-.825-.275,2.33,2.33,0,0,1-.788-.516,1.393,1.393,0,0,1-.39-1,1.553,1.553,0,0,1,.441-1.094,2.439,2.439,0,0,1,.98-.607,3.35,3.35,0,0,1,1.2-.176,3.454,3.454,0,0,1,1.236.268A2.915,2.915,0,0,1,35.4-9.8a2.6,2.6,0,0,1,.475.771l1.5-.256a4.119,4.119,0,0,0-.7-1.223A3.864,3.864,0,0,0,35.2-11.583a5.553,5.553,0,0,0-2.075-.395h-.046a5.723,5.723,0,0,0-2.063.358,3.181,3.181,0,0,0-1.439,1.052,2.779,2.779,0,0,0-.518,1.746A2.7,2.7,0,0,0,29.3-7.6a2.256,2.256,0,0,0,.6.757,3.168,3.168,0,0,0,.788.463c.3.118.561.21.782.273l3.189.938a3.334,3.334,0,0,1,.694.292,1.817,1.817,0,0,1,.494.4,1.466,1.466,0,0,1,.275.5,1.693,1.693,0,0,1,.079.512,1.663,1.663,0,0,1-.489,1.21,2.685,2.685,0,0,1-1.077.65,3.987,3.987,0,0,1-1.263.2,3.56,3.56,0,0,1-2.109-.662A3.1,3.1,0,0,1,30.146-3.54ZM17.7.755A6.472,6.472,0,0,1,15.312.308a5.873,5.873,0,0,1-2.02-1.332,6.264,6.264,0,0,1-1.378-2.169,8.064,8.064,0,0,1-.5-2.927,7.639,7.639,0,0,1,.839-3.695,5.94,5.94,0,0,1,2.282-2.367,6.3,6.3,0,0,1,3.159-.814,6.239,6.239,0,0,1,4.03,1.208,5.9,5.9,0,0,1,1.983,3.379l.121.529L20.508-7.4l-.126-.408a3.064,3.064,0,0,0-.931-1.48,2.394,2.394,0,0,0-1.6-.531h-.07A2.8,2.8,0,0,0,16.19-9.4a2.624,2.624,0,0,0-.975,1.243,5.426,5.426,0,0,0-.35,2.039A5.3,5.3,0,0,0,15.214-4.1a2.633,2.633,0,0,0,.977,1.229,3.031,3.031,0,0,0,1.667.451h.08a2.758,2.758,0,0,0,1.14-.229,2.154,2.154,0,0,0,.882-.744,3.006,3.006,0,0,0,.392-.8H18.557V-6.977h5.332l.065.424a4.046,4.046,0,0,1,.031.452c.008.254.009.313.009.338a7.136,7.136,0,0,1-.771,3.352,5.784,5.784,0,0,1-2.2,2.327A6.435,6.435,0,0,1,17.7.755Zm0-12.75a5.311,5.311,0,0,0-2.664.682,4.956,4.956,0,0,0-1.9,1.977,6.66,6.66,0,0,0-.717,3.216,7.075,7.075,0,0,0,.429,2.564A5.273,5.273,0,0,0,14-1.73,4.879,4.879,0,0,0,15.679-.622,5.477,5.477,0,0,0,17.7-.245a5.453,5.453,0,0,0,2.814-.7,4.8,4.8,0,0,0,1.826-1.931,6.149,6.149,0,0,0,.657-2.887c0-.008,0-.044-.005-.214H19.557v.785H21.6l-.115.595a4.537,4.537,0,0,1-.713,1.785,3.17,3.17,0,0,1-1.286,1.075,3.781,3.781,0,0,1-1.648.316,4,4,0,0,1-2.206-.62A3.651,3.651,0,0,1,14.29-3.719a6.28,6.28,0,0,1-.425-2.4,6.412,6.412,0,0,1,.424-2.415,3.64,3.64,0,0,1,1.345-1.7,3.818,3.818,0,0,1,2.224-.586,3.391,3.391,0,0,1,2.242.77,3.957,3.957,0,0,1,1.092,1.54l1.4-.2a4.7,4.7,0,0,0-1.5-2.3A5.283,5.283,0,0,0,17.7-11.995ZM5.814.755A6.554,6.554,0,0,1,3.16.232,5.083,5.083,0,0,1,1.174-1.294,5,5,0,0,1,.186-3.666l-.075-.5,3.362-.5.107.444a2.187,2.187,0,0,0,.858,1.334A2.545,2.545,0,0,0,5.967-2.4a2.989,2.989,0,0,0,.947-.153,1.7,1.7,0,0,0,.682-.4.678.678,0,0,0,.2-.507.685.685,0,0,0-.032-.21.467.467,0,0,0-.09-.158.852.852,0,0,0-.229-.177,2.394,2.394,0,0,0-.484-.2L3.786-5.147c-.249-.071-.544-.174-.872-.3a4.165,4.165,0,0,1-1.039-.608A3.246,3.246,0,0,1,1-7.146,3.673,3.673,0,0,1,.656-8.823a3.788,3.788,0,0,1,.722-2.351,4.209,4.209,0,0,1,1.876-1.379,6.716,6.716,0,0,1,2.422-.425h.056a6.548,6.548,0,0,1,2.451.472,4.855,4.855,0,0,1,1.855,1.35,5.36,5.36,0,0,1,1.071,2.139l.137.527-3.5.6-.105-.461a1.7,1.7,0,0,0-.386-.781,1.9,1.9,0,0,0-.693-.493,2.458,2.458,0,0,0-.88-.191,2.346,2.346,0,0,0-.846.122,1.453,1.453,0,0,0-.584.354.542.542,0,0,0-.163.4.386.386,0,0,0,.1.3,1.34,1.34,0,0,0,.453.291,5.582,5.582,0,0,0,.7.234H5.35l2.125.578c.327.088.7.2,1.092.348a5.288,5.288,0,0,1,1.225.638,3.446,3.446,0,0,1,1.024,1.136,3.558,3.558,0,0,1,.41,1.778,3.97,3.97,0,0,1-.476,1.966A4.1,4.1,0,0,1,9.489-.29,5.624,5.624,0,0,1,7.759.5,7.451,7.451,0,0,1,5.814.755ZM1.275-3.323A3.857,3.857,0,0,0,1.962-1.91a4.094,4.094,0,0,0,1.6,1.227,5.564,5.564,0,0,0,2.251.438A6.451,6.451,0,0,0,7.5-.466a4.628,4.628,0,0,0,1.424-.647,3.111,3.111,0,0,0,.957-1.048,2.986,2.986,0,0,0,.348-1.477A2.588,2.588,0,0,0,9.948-4.92a2.455,2.455,0,0,0-.727-.811,4.288,4.288,0,0,0-.993-.518c-.37-.133-.712-.242-1.014-.323L5.09-7.15a6.584,6.584,0,0,1-.826-.275,2.33,2.33,0,0,1-.788-.516,1.393,1.393,0,0,1-.39-1,1.553,1.553,0,0,1,.441-1.094,2.439,2.439,0,0,1,.98-.607,3.35,3.35,0,0,1,1.2-.176,3.454,3.454,0,0,1,1.236.268A2.915,2.915,0,0,1,8-9.8a2.6,2.6,0,0,1,.475.771l1.5-.256a4.119,4.119,0,0,0-.7-1.223A3.864,3.864,0,0,0,7.8-11.583a5.553,5.553,0,0,0-2.075-.395H5.677a5.723,5.723,0,0,0-2.063.358,3.181,3.181,0,0,0-1.439,1.052,2.779,2.779,0,0,0-.518,1.746A2.7,2.7,0,0,0,1.894-7.6a2.256,2.256,0,0,0,.6.757,3.168,3.168,0,0,0,.788.463c.3.118.561.21.782.273l3.189.938a3.334,3.334,0,0,1,.694.292,1.817,1.817,0,0,1,.494.4,1.466,1.466,0,0,1,.275.5,1.693,1.693,0,0,1,.079.512,1.663,1.663,0,0,1-.489,1.21,2.685,2.685,0,0,1-1.077.65,3.987,3.987,0,0,1-1.263.2,3.56,3.56,0,0,1-2.109-.662A3.1,3.1,0,0,1,2.742-3.54ZM113.006.5h-3.312V-5.423a1.659,1.659,0,0,0-.31-1.092.976.976,0,0,0-.8-.329A1.047,1.047,0,0,0,108-6.7a1.024,1.024,0,0,0-.375.428,1.59,1.59,0,0,0-.148.709V.5h-3.312V-5.423a1.659,1.659,0,0,0-.31-1.092.976.976,0,0,0-.8-.329.972.972,0,0,0-.785.328,1.385,1.385,0,0,0-.313.957V.5H98.627V-9.68h3.04v.4q.117-.075.242-.143a4,4,0,0,1,1.944-.478,3.649,3.649,0,0,1,2.048.542,3.3,3.3,0,0,1,.652.564,3.659,3.659,0,0,1,.867-.643,3.985,3.985,0,0,1,1.907-.463,3.454,3.454,0,0,1,2.754,1.1,4.1,4.1,0,0,1,.925,2.762Zm-2.312-1h1.312V-6.035a3.088,3.088,0,0,0-.682-2.109,2.475,2.475,0,0,0-2-.757,3,3,0,0,0-1.434.344,2.6,2.6,0,0,0-.786.637v0a4.334,4.334,0,0,1,.182.5,1.985,1.985,0,0,1,.18-.128,2.042,2.042,0,0,1,1.108-.3,1.957,1.957,0,0,1,1.567.682,2.61,2.61,0,0,1,.548,1.739Zm-5.525,0h1.312V-5.291l-.969-.646V-6.2a3.654,3.654,0,0,1,.425-1.763,2.246,2.246,0,0,0-.588-.558,2.68,2.68,0,0,0-1.5-.376,3.012,3.012,0,0,0-1.464.355,2.831,2.831,0,0,0-.722.558v.658a1.971,1.971,0,0,1,1.387-.514,1.957,1.957,0,0,1,1.567.682,2.61,2.61,0,0,1,.548,1.739Zm-5.542,0h1.329V-5.3l-.969-.68v-.26a3.468,3.468,0,0,1,.528-1.882c.048-.076.1-.151.152-.224V-8.68h-1.04ZM86.605.5H83.293V-4.549H78.819V.5H75.507V-12.74h3.312v5.032h4.474V-12.74h3.312Zm-2.312-1h1.312V-11.74H84.293v5.032H77.819V-11.74H76.507V-.5h1.312V-5.549h6.474ZM68.432.5H65.1V-9.68h3.04v.662q.11-.079.228-.148a3.479,3.479,0,0,1,.839-.37,4.345,4.345,0,0,1,.913-.163,4.832,4.832,0,0,1,.929.024l.439.054v3.281l-.649-.2a1.908,1.908,0,0,0-.7-.06,2.055,2.055,0,0,0-.735.186l-.008,0a1.578,1.578,0,0,0-.526.378,1.577,1.577,0,0,0-.323.558,2.425,2.425,0,0,0-.117.785ZM66.1-.5h1.329V-4.692A3.417,3.417,0,0,1,67.6-5.8q.042-.123.094-.239l-.841-1.1.1-.259a4.035,4.035,0,0,1,.189-.428V-8.68H66.1Zm2.04-7.067v.847a2.6,2.6,0,0,1,.835-.6A3.049,3.049,0,0,1,70.066-7.6a3.493,3.493,0,0,1,.426-.007v-1.1c-.1,0-.2,0-.3.01a3.345,3.345,0,0,0-.7.126,2.477,2.477,0,0,0-.6.265l-.009.005a2.017,2.017,0,0,0-.587.518C68.242-7.718,68.191-7.643,68.143-7.567ZM53.642.5H50.33v-13.5h3.312ZM51.33-.5h1.312v-11.5H51.33Zm41.286-.9a2.417,2.417,0,0,1-2.033-.923,3.638,3.638,0,0,1-.66-2.263,4.381,4.381,0,0,1,.267-1.583,2.5,2.5,0,0,1,.9-1.172,2.607,2.607,0,0,1,1.528-.431,2.431,2.431,0,0,1,2.051.928,3.643,3.643,0,0,1,.659,2.258,3.7,3.7,0,0,1-.644,2.228A2.4,2.4,0,0,1,92.616-1.4Zm0-5.372a1.639,1.639,0,0,0-.954.249,1.5,1.5,0,0,0-.539.715,3.4,3.4,0,0,0-.2,1.222,2.679,2.679,0,0,0,.454,1.655,1.45,1.45,0,0,0,1.239.531,1.44,1.44,0,0,0,1.258-.547,2.733,2.733,0,0,0,.452-1.639,2.682,2.682,0,0,0-.455-1.652A1.465,1.465,0,0,0,92.616-6.776ZM44.132-1.4A2.417,2.417,0,0,1,42.1-2.327a3.638,3.638,0,0,1-.66-2.263,4.381,4.381,0,0,1,.268-1.583,2.5,2.5,0,0,1,.9-1.172,2.607,2.607,0,0,1,1.528-.431,2.431,2.431,0,0,1,2.051.928,3.643,3.643,0,0,1,.659,2.258A3.7,3.7,0,0,1,46.2-2.362,2.4,2.4,0,0,1,44.132-1.4Zm0-5.372a1.639,1.639,0,0,0-.954.249,1.5,1.5,0,0,0-.539.715,3.394,3.394,0,0,0-.2,1.222,2.679,2.679,0,0,0,.454,1.655,1.45,1.45,0,0,0,1.239.531,1.44,1.44,0,0,0,1.258-.547,2.733,2.733,0,0,0,.452-1.639,2.682,2.682,0,0,0-.455-1.652A1.465,1.465,0,0,0,44.132-6.776Z" transform="translate(30 19)" fill="rgba(0,0,0,0)"/>
  </g>
</svg>
