<svg xmlns="http://www.w3.org/2000/svg" data-name="Layer 12" viewBox="0 0 512 640" x="0px" y="0px">
  <defs>
    <style>
      .cls-1 {
        stroke-width: 0px;
      }
    </style>
  </defs>
  <path class="cls-1" d="M254.7,0C143.96.72,54.76,91.08,55.48,201.83c.58,88.97,59.01,164.02,139.39,189.73l35.66,101.13c9.14,25.93,45.9,25.69,54.71-.35l34.35-101.58c80.04-26.74,137.5-102.54,136.93-191.52C455.81,88.48,365.45-.71,254.7,0ZM255.52,125.77c41.22-.27,74.97,33.05,75.24,74.27.27,41.22-33.05,74.97-74.27,75.24-41.22.27-74.97-33.05-75.24-74.27-.27-41.22,33.05-74.97,74.27-75.24Z"/>
</svg>
